# xmcd
#
# Track frame offsets: 
#        150
#        14042
#        30290
#        32732
#        47372
#        58827
#        71337
#        82182
#        95705
#        111425
#        137372
#        151695
#        169225
#        174832
#        198055
#        217095
#        241882
#        257650
#
# Disc length: 3677 seconds
#
# Revision: 1
# Processed by: cddbd v1.5.2PL0 Copyright (c) Steve Scherf et al.
# Submitted via: ExactAudioCopy v0.99pb5
#
DISCID=ec0e5b12
DTITLE=Various Artist - Blues Brothers 2000
DYEAR=1997
DGENRE=Soundtrack
TTITLE0=The Paul Butterfield Blues Band - Born in Chicago
TTITLE1=Matt "Guitar" Murphy - The Blues Don't Bother Me
TTITLE2=John Popper - Harmonica Musings
TTITLE3=Dan Aykroyd, Lonnie Brooks, Junior Wells and The Blues Brother
TTITLE3=s Band - Cheaper to Keep Her
TTITLE4=The Blues Brothers Band - Perry Mason Theme
TTITLE5=John Goodman, Dan Aykroyd and The Blues Brothers Band - Lookin
TTITLE5=g For a Fox
TTITLE6=The Blues Brothers Band - Can't Turn You Loose
TTITLE7=Aretha Franklin and The Blues Brothers Band - R-E-S-P-E-C-T
TTITLE8=Eddie Floyd, Wilson Pickett, Jonny Lang and The Blues Brothers
TTITLE8=Band - 634-5789
TTITLE9=Blues Traveler - Maybe I'm Wrong
TTITLE10=Dan Aykroyd, John Goodman and The Blues Brothers Band - Rider
TTITLE10=s in The Sky
TTITLE11=Taj Mahal, Sam Moore, Joe Morton, Sharon Riley and The Faith 
TTITLE11=Chorale - John The Revelator
TTITLE12=The Carl LaFong Trio - Let There be Drums
TTITLE13=Dr. John and The Blues Brothers Band - Season of The Witch
TTITLE14=Joe Morton, Dan Aykroyd, John Goodman, Paul Shaffer, Erykah B
TTITLE14=adu and The Blues Brothers Band - Funky Nassau
TTITLE15=The Louisiana Gator Boys - How Blue Can You Get
TTITLE16=Joe Morton, Dan Aykroyd, John Goodman, J. Evan Bonifant and T
TTITLE16=he Blues Brothers Band - Turn on Your Love Light
TTITLE17=The Louisiana Gator Boys and The Blues Brothers Band - New Or
TTITLE17=leans
EXTD=
EXTT0=
EXTT1=
EXTT2=
EXTT3=
EXTT4=
EXTT5=
EXTT6=
EXTT7=
EXTT8=
EXTT9=
EXTT10=
EXTT11=
EXTT12=
EXTT13=
EXTT14=
EXTT15=
EXTT16=
EXTT17=
PLAYORDER=
